<mxfile host="drawio-plugin" modified="2023-12-13T17:51:24.690Z" agent="5.0 (Windows NT 10.0; Win64; x64) AppleWebKit/537.36 (KHTML, like Gecko) Chrome/111.0.0.0 Safari/537.36" etag="myeF5GWUNtL9hVzA1R2w" version="20.5.3" type="embed"><diagram name="Seite-1" id="JxjTSqNVBGUQB2Cjt7oZ"><mxGraphModel dx="692" dy="586" grid="1" gridSize="10" guides="1" tooltips="1" connect="1" arrows="1" fold="1" page="1" pageScale="1" pageWidth="827" pageHeight="1169" math="0" shadow="0"><root><mxCell id="0"/><mxCell id="1" parent="0"/><mxCell id="w1dbYhPozAn4cl4gl__x-16" style="edgeStyle=orthogonalEdgeStyle;rounded=0;orthogonalLoop=1;jettySize=auto;html=1;entryX=0;entryY=1;entryDx=0;entryDy=0;" parent="1" source="w1dbYhPozAn4cl4gl__x-9" target="w1dbYhPozAn4cl4gl__x-10" edge="1"><mxGeometry relative="1" as="geometry"/></mxCell><mxCell id="w1dbYhPozAn4cl4gl__x-9" value="Player" style="shape=umlActor;verticalLabelPosition=bottom;verticalAlign=top;html=1;" parent="1" vertex="1"><mxGeometry x="20" y="340" width="30" height="60" as="geometry"/></mxCell><mxCell id="w1dbYhPozAn4cl4gl__x-15" style="edgeStyle=orthogonalEdgeStyle;orthogonalLoop=1;jettySize=auto;html=1;entryX=0;entryY=0.5;entryDx=0;entryDy=0;curved=1;exitX=0.5;exitY=0;exitDx=0;exitDy=0;" parent="1" source="w1dbYhPozAn4cl4gl__x-10" target="w1dbYhPozAn4cl4gl__x-13" edge="1"><mxGeometry relative="1" as="geometry"/></mxCell><mxCell id="w1dbYhPozAn4cl4gl__x-10" value="Start Round" style="ellipse;whiteSpace=wrap;html=1;" parent="1" vertex="1"><mxGeometry x="20" y="140" width="100" height="40" as="geometry"/></mxCell><mxCell id="w1dbYhPozAn4cl4gl__x-18" style="edgeStyle=orthogonalEdgeStyle;rounded=0;orthogonalLoop=1;jettySize=auto;html=1;" parent="1" source="w1dbYhPozAn4cl4gl__x-13" target="w1dbYhPozAn4cl4gl__x-17" edge="1"><mxGeometry relative="1" as="geometry"/></mxCell><mxCell id="w1dbYhPozAn4cl4gl__x-13" value="Stop Aimassist at wanted Angle" style="ellipse;whiteSpace=wrap;html=1;" parent="1" vertex="1"><mxGeometry x="130" y="20" width="110" height="70" as="geometry"/></mxCell><mxCell id="w1dbYhPozAn4cl4gl__x-20" style="edgeStyle=orthogonalEdgeStyle;rounded=0;orthogonalLoop=1;jettySize=auto;html=1;" parent="1" source="w1dbYhPozAn4cl4gl__x-17" target="w1dbYhPozAn4cl4gl__x-19" edge="1"><mxGeometry relative="1" as="geometry"/></mxCell><mxCell id="w1dbYhPozAn4cl4gl__x-17" value="Stop Powerbar at wanted Power" style="ellipse;whiteSpace=wrap;html=1;" parent="1" vertex="1"><mxGeometry x="280" y="20" width="130" height="70" as="geometry"/></mxCell><mxCell id="w1dbYhPozAn4cl4gl__x-22" style="edgeStyle=orthogonalEdgeStyle;rounded=0;orthogonalLoop=1;jettySize=auto;html=1;entryX=0.5;entryY=0;entryDx=0;entryDy=0;" parent="1" source="w1dbYhPozAn4cl4gl__x-19" target="w1dbYhPozAn4cl4gl__x-21" edge="1"><mxGeometry relative="1" as="geometry"/></mxCell><mxCell id="w1dbYhPozAn4cl4gl__x-19" value="Throw" style="ellipse;whiteSpace=wrap;html=1;" parent="1" vertex="1"><mxGeometry x="440" y="35" width="60" height="40" as="geometry"/></mxCell><mxCell id="w1dbYhPozAn4cl4gl__x-26" style="edgeStyle=orthogonalEdgeStyle;rounded=0;orthogonalLoop=1;jettySize=auto;html=1;" parent="1" source="w1dbYhPozAn4cl4gl__x-29" target="w1dbYhPozAn4cl4gl__x-25" edge="1"><mxGeometry relative="1" as="geometry"/></mxCell><mxCell id="w1dbYhPozAn4cl4gl__x-34" style="edgeStyle=orthogonalEdgeStyle;rounded=0;orthogonalLoop=1;jettySize=auto;html=1;entryX=0.5;entryY=0;entryDx=0;entryDy=0;" parent="1" source="w1dbYhPozAn4cl4gl__x-37" target="w1dbYhPozAn4cl4gl__x-32" edge="1"><mxGeometry relative="1" as="geometry"/></mxCell><mxCell id="w1dbYhPozAn4cl4gl__x-48" style="edgeStyle=orthogonalEdgeStyle;rounded=0;orthogonalLoop=1;jettySize=auto;html=1;exitX=0.5;exitY=1;exitDx=0;exitDy=0;endArrow=none;endFill=0;" parent="1" source="w1dbYhPozAn4cl4gl__x-21" target="w1dbYhPozAn4cl4gl__x-37" edge="1"><mxGeometry relative="1" as="geometry"/></mxCell><mxCell id="w1dbYhPozAn4cl4gl__x-21" value="" style="rhombus;whiteSpace=wrap;html=1;" parent="1" vertex="1"><mxGeometry x="450" y="140" width="40" height="40" as="geometry"/></mxCell><UserObject label="if: HIT" placeholders="1" name="Variable" id="w1dbYhPozAn4cl4gl__x-24"><mxCell style="text;html=1;strokeColor=none;fillColor=none;align=center;verticalAlign=middle;whiteSpace=wrap;overflow=hidden;" parent="1" vertex="1"><mxGeometry x="460" y="120" width="80" height="20" as="geometry"/></mxCell></UserObject><mxCell id="w1dbYhPozAn4cl4gl__x-27" style="edgeStyle=orthogonalEdgeStyle;orthogonalLoop=1;jettySize=auto;html=1;entryX=1;entryY=0.5;entryDx=0;entryDy=0;curved=1;" parent="1" source="w1dbYhPozAn4cl4gl__x-25" target="w1dbYhPozAn4cl4gl__x-10" edge="1"><mxGeometry relative="1" as="geometry"/></mxCell><mxCell id="w1dbYhPozAn4cl4gl__x-25" value="Change Player" style="ellipse;whiteSpace=wrap;html=1;" parent="1" vertex="1"><mxGeometry x="150" y="125" width="140" height="70" as="geometry"/></mxCell><mxCell id="w1dbYhPozAn4cl4gl__x-41" style="edgeStyle=orthogonalEdgeStyle;rounded=0;orthogonalLoop=1;jettySize=auto;html=1;entryX=0;entryY=0.5;entryDx=0;entryDy=0;" parent="1" source="w1dbYhPozAn4cl4gl__x-42" target="w1dbYhPozAn4cl4gl__x-39" edge="1"><mxGeometry relative="1" as="geometry"/></mxCell><mxCell id="w1dbYhPozAn4cl4gl__x-67" style="edgeStyle=orthogonalEdgeStyle;rounded=0;orthogonalLoop=1;jettySize=auto;html=1;entryX=0.5;entryY=0;entryDx=0;entryDy=0;" parent="1" source="w1dbYhPozAn4cl4gl__x-68" target="w1dbYhPozAn4cl4gl__x-65" edge="1"><mxGeometry relative="1" as="geometry"/></mxCell><mxCell id="w1dbYhPozAn4cl4gl__x-70" style="edgeStyle=orthogonalEdgeStyle;rounded=0;orthogonalLoop=1;jettySize=auto;html=1;entryX=1;entryY=0.5;entryDx=0;entryDy=0;endArrow=none;endFill=0;" parent="1" source="w1dbYhPozAn4cl4gl__x-32" target="w1dbYhPozAn4cl4gl__x-68" edge="1"><mxGeometry relative="1" as="geometry"><mxPoint x="390" y="310" as="targetPoint"/></mxGeometry></mxCell><mxCell id="w1dbYhPozAn4cl4gl__x-32" value="" style="rhombus;whiteSpace=wrap;html=1;" parent="1" vertex="1"><mxGeometry x="450" y="260" width="40" height="40" as="geometry"/></mxCell><UserObject label="if: HIT KING" placeholders="1" name="Variable" id="w1dbYhPozAn4cl4gl__x-36"><mxCell style="text;html=1;strokeColor=none;fillColor=none;align=center;verticalAlign=middle;whiteSpace=wrap;overflow=hidden;" parent="1" vertex="1"><mxGeometry x="480" y="240" width="80" height="20" as="geometry"/></mxCell></UserObject><mxCell id="w1dbYhPozAn4cl4gl__x-51" style="edgeStyle=orthogonalEdgeStyle;rounded=0;orthogonalLoop=1;jettySize=auto;html=1;" parent="1" source="w1dbYhPozAn4cl4gl__x-58" target="w1dbYhPozAn4cl4gl__x-49" edge="1"><mxGeometry relative="1" as="geometry"/></mxCell><mxCell id="w1dbYhPozAn4cl4gl__x-52" style="edgeStyle=orthogonalEdgeStyle;rounded=0;orthogonalLoop=1;jettySize=auto;html=1;entryX=0.5;entryY=0;entryDx=0;entryDy=0;" parent="1" source="w1dbYhPozAn4cl4gl__x-55" target="w1dbYhPozAn4cl4gl__x-50" edge="1"><mxGeometry relative="1" as="geometry"/></mxCell><mxCell id="w1dbYhPozAn4cl4gl__x-57" style="edgeStyle=orthogonalEdgeStyle;rounded=0;orthogonalLoop=1;jettySize=auto;html=1;entryX=1;entryY=0.5;entryDx=0;entryDy=0;endArrow=none;endFill=0;" parent="1" source="w1dbYhPozAn4cl4gl__x-39" target="w1dbYhPozAn4cl4gl__x-55" edge="1"><mxGeometry relative="1" as="geometry"/></mxCell><mxCell id="w1dbYhPozAn4cl4gl__x-39" value="" style="rhombus;whiteSpace=wrap;html=1;" parent="1" vertex="1"><mxGeometry x="610" y="260" width="40" height="40" as="geometry"/></mxCell><mxCell id="w1dbYhPozAn4cl4gl__x-43" value="" style="edgeStyle=orthogonalEdgeStyle;rounded=0;orthogonalLoop=1;jettySize=auto;html=1;entryX=0;entryY=0.5;entryDx=0;entryDy=0;strokeColor=default;endArrow=none;endFill=0;" parent="1" source="w1dbYhPozAn4cl4gl__x-32" target="w1dbYhPozAn4cl4gl__x-42" edge="1"><mxGeometry relative="1" as="geometry"><mxPoint x="490" y="240" as="sourcePoint"/><mxPoint x="580" y="240" as="targetPoint"/></mxGeometry></mxCell><mxCell id="2" value="" style="edgeStyle=orthogonalEdgeStyle;rounded=0;orthogonalLoop=1;jettySize=auto;html=1;" edge="1" parent="1" source="w1dbYhPozAn4cl4gl__x-42" target="w1dbYhPozAn4cl4gl__x-71"><mxGeometry relative="1" as="geometry"/></mxCell><UserObject label="true" placeholders="1" name="Variable" id="w1dbYhPozAn4cl4gl__x-42"><mxCell style="text;html=1;strokeColor=none;fillColor=none;align=center;verticalAlign=middle;whiteSpace=wrap;overflow=hidden;" parent="1" vertex="1"><mxGeometry x="520" y="270" width="40" height="20" as="geometry"/></mxCell></UserObject><mxCell id="w1dbYhPozAn4cl4gl__x-44" value="" style="edgeStyle=orthogonalEdgeStyle;rounded=0;orthogonalLoop=1;jettySize=auto;html=1;endArrow=none;endFill=0;" parent="1" source="w1dbYhPozAn4cl4gl__x-21" target="w1dbYhPozAn4cl4gl__x-29" edge="1"><mxGeometry relative="1" as="geometry"><mxPoint x="450" y="160" as="sourcePoint"/><mxPoint x="290" y="160" as="targetPoint"/></mxGeometry></mxCell><UserObject label="false" placeholders="1" name="Variable" id="w1dbYhPozAn4cl4gl__x-29"><mxCell style="text;html=1;strokeColor=none;fillColor=none;align=center;verticalAlign=middle;whiteSpace=wrap;overflow=hidden;" parent="1" vertex="1"><mxGeometry x="350" y="150" width="40" height="20" as="geometry"/></mxCell></UserObject><UserObject label="true" placeholders="1" name="Variable" id="w1dbYhPozAn4cl4gl__x-37"><mxCell style="text;html=1;strokeColor=none;fillColor=none;align=center;verticalAlign=middle;whiteSpace=wrap;overflow=hidden;rotation=-90;" parent="1" vertex="1"><mxGeometry x="450" y="210" width="40" height="20" as="geometry"/></mxCell></UserObject><mxCell id="w1dbYhPozAn4cl4gl__x-61" style="edgeStyle=orthogonalEdgeStyle;rounded=0;orthogonalLoop=1;jettySize=auto;html=1;entryX=0.5;entryY=0;entryDx=0;entryDy=0;" parent="1" source="w1dbYhPozAn4cl4gl__x-49" target="w1dbYhPozAn4cl4gl__x-60" edge="1"><mxGeometry relative="1" as="geometry"/></mxCell><mxCell id="w1dbYhPozAn4cl4gl__x-49" value="Current Player lost" style="ellipse;whiteSpace=wrap;html=1;" parent="1" vertex="1"><mxGeometry x="585" y="90" width="90" height="70" as="geometry"/></mxCell><mxCell id="w1dbYhPozAn4cl4gl__x-62" style="edgeStyle=orthogonalEdgeStyle;rounded=0;orthogonalLoop=1;jettySize=auto;html=1;entryX=0.5;entryY=1;entryDx=0;entryDy=0;" parent="1" source="w1dbYhPozAn4cl4gl__x-50" target="w1dbYhPozAn4cl4gl__x-60" edge="1"><mxGeometry relative="1" as="geometry"/></mxCell><mxCell id="w1dbYhPozAn4cl4gl__x-50" value="Current Player won" style="ellipse;whiteSpace=wrap;html=1;" parent="1" vertex="1"><mxGeometry x="585" y="390" width="90" height="70" as="geometry"/></mxCell><UserObject label="if: LAST FIGURE" placeholders="1" name="Variable" id="w1dbYhPozAn4cl4gl__x-53"><mxCell style="text;html=1;strokeColor=none;fillColor=none;align=center;verticalAlign=middle;whiteSpace=wrap;overflow=hidden;" parent="1" vertex="1"><mxGeometry x="640" y="240" width="100" height="20" as="geometry"/></mxCell></UserObject><UserObject label="true" placeholders="1" name="Variable" id="w1dbYhPozAn4cl4gl__x-55"><mxCell style="text;html=1;strokeColor=none;fillColor=none;align=center;verticalAlign=middle;whiteSpace=wrap;overflow=hidden;rotation=-90;" parent="1" vertex="1"><mxGeometry x="615" y="340" width="30" height="20" as="geometry"/></mxCell></UserObject><mxCell id="w1dbYhPozAn4cl4gl__x-59" value="" style="edgeStyle=orthogonalEdgeStyle;rounded=0;orthogonalLoop=1;jettySize=auto;html=1;endArrow=none;endFill=0;" parent="1" source="w1dbYhPozAn4cl4gl__x-39" target="w1dbYhPozAn4cl4gl__x-58" edge="1"><mxGeometry relative="1" as="geometry"><mxPoint x="630" y="260" as="sourcePoint"/><mxPoint x="630" y="160" as="targetPoint"/></mxGeometry></mxCell><UserObject label="false" placeholders="1" name="Variable" id="w1dbYhPozAn4cl4gl__x-58"><mxCell style="text;html=1;strokeColor=none;fillColor=none;align=center;verticalAlign=middle;whiteSpace=wrap;overflow=hidden;rotation=-90;" parent="1" vertex="1"><mxGeometry x="610" y="200" width="40" height="20" as="geometry"/></mxCell></UserObject><mxCell id="w1dbYhPozAn4cl4gl__x-60" value="" style="ellipse;whiteSpace=wrap;html=1;aspect=fixed;" parent="1" vertex="1"><mxGeometry x="760" y="265" width="30" height="30" as="geometry"/></mxCell><UserObject label="END" placeholders="1" name="Variable" id="w1dbYhPozAn4cl4gl__x-63"><mxCell style="text;html=1;strokeColor=none;fillColor=none;align=center;verticalAlign=middle;whiteSpace=wrap;overflow=hidden;" parent="1" vertex="1"><mxGeometry x="700" y="270" width="80" height="20" as="geometry"/></mxCell></UserObject><mxCell id="w1dbYhPozAn4cl4gl__x-72" style="edgeStyle=orthogonalEdgeStyle;rounded=0;orthogonalLoop=1;jettySize=auto;html=1;entryX=1;entryY=1;entryDx=0;entryDy=0;" parent="1" source="w1dbYhPozAn4cl4gl__x-73" target="w1dbYhPozAn4cl4gl__x-25" edge="1"><mxGeometry relative="1" as="geometry"/></mxCell><mxCell id="w1dbYhPozAn4cl4gl__x-75" style="edgeStyle=orthogonalEdgeStyle;rounded=0;orthogonalLoop=1;jettySize=auto;html=1;entryX=1;entryY=0.5;entryDx=0;entryDy=0;endArrow=none;endFill=0;" parent="1" source="w1dbYhPozAn4cl4gl__x-65" target="w1dbYhPozAn4cl4gl__x-73" edge="1"><mxGeometry relative="1" as="geometry"/></mxCell><mxCell id="w1dbYhPozAn4cl4gl__x-80" style="edgeStyle=orthogonalEdgeStyle;rounded=0;orthogonalLoop=1;jettySize=auto;html=1;entryX=1;entryY=0.5;entryDx=0;entryDy=0;" parent="1" source="w1dbYhPozAn4cl4gl__x-81" target="w1dbYhPozAn4cl4gl__x-76" edge="1"><mxGeometry relative="1" as="geometry"><Array as="points"/></mxGeometry></mxCell><mxCell id="w1dbYhPozAn4cl4gl__x-65" value="" style="rhombus;whiteSpace=wrap;html=1;" parent="1" vertex="1"><mxGeometry x="450" y="390" width="40" height="40" as="geometry"/></mxCell><UserObject label="false" placeholders="1" name="Variable" id="w1dbYhPozAn4cl4gl__x-68"><mxCell style="text;html=1;strokeColor=none;fillColor=none;align=center;verticalAlign=middle;whiteSpace=wrap;overflow=hidden;rotation=-90;" parent="1" vertex="1"><mxGeometry x="450" y="340" width="40" height="20" as="geometry"/></mxCell></UserObject><UserObject label="if: CENTER FIGURE" placeholders="1" name="Variable" id="w1dbYhPozAn4cl4gl__x-71"><mxCell style="text;html=1;strokeColor=none;fillColor=none;align=center;verticalAlign=middle;whiteSpace=wrap;overflow=hidden;" parent="1" vertex="1"><mxGeometry x="475" y="370" width="130" height="20" as="geometry"/></mxCell></UserObject><UserObject label="false" placeholders="1" name="Variable" id="w1dbYhPozAn4cl4gl__x-73"><mxCell style="text;html=1;strokeColor=none;fillColor=none;align=center;verticalAlign=middle;whiteSpace=wrap;overflow=hidden;" parent="1" vertex="1"><mxGeometry x="310" y="400" width="40" height="20" as="geometry"/></mxCell></UserObject><mxCell id="w1dbYhPozAn4cl4gl__x-76" value="Throw Figure into enemy field" style="ellipse;whiteSpace=wrap;html=1;" parent="1" vertex="1"><mxGeometry x="150" y="460" width="120" height="70" as="geometry"/></mxCell><mxCell id="w1dbYhPozAn4cl4gl__x-82" value="" style="edgeStyle=orthogonalEdgeStyle;rounded=0;orthogonalLoop=1;jettySize=auto;html=1;entryX=1;entryY=0.5;entryDx=0;entryDy=0;endArrow=none;endFill=0;" parent="1" source="w1dbYhPozAn4cl4gl__x-65" target="w1dbYhPozAn4cl4gl__x-81" edge="1"><mxGeometry relative="1" as="geometry"><mxPoint x="470" y="430" as="sourcePoint"/><mxPoint x="270" y="495" as="targetPoint"/><Array as="points"><mxPoint x="470" y="495"/></Array></mxGeometry></mxCell><UserObject label="true" placeholders="1" name="Variable" id="w1dbYhPozAn4cl4gl__x-81"><mxCell style="text;html=1;strokeColor=none;fillColor=none;align=center;verticalAlign=middle;whiteSpace=wrap;overflow=hidden;" parent="1" vertex="1"><mxGeometry x="350" y="485" width="40" height="20" as="geometry"/></mxCell></UserObject><mxCell id="w1dbYhPozAn4cl4gl__x-83" style="edgeStyle=orthogonalEdgeStyle;rounded=0;orthogonalLoop=1;jettySize=auto;html=1;entryX=0.424;entryY=0.986;entryDx=0;entryDy=0;entryPerimeter=0;" parent="1" source="w1dbYhPozAn4cl4gl__x-76" target="w1dbYhPozAn4cl4gl__x-25" edge="1"><mxGeometry relative="1" as="geometry"/></mxCell></root></mxGraphModel></diagram></mxfile>